<svg xmlns="http://www.w3.org/2000/svg" xmlns:xlink="http://www.w3.org/1999/xlink" viewBox="0 0 543.5 878"><defs><style>.cls-1{fill:none;}.cls-2{fill:#34892b;}.cls-3{fill:#fff;}.cls-4{opacity:0.25;}.cls-5{fill:#e0e0e0;}.cls-6{clip-path:url(#clip-path);}.cls-7{fill:#fbb03b;}.cls-8{fill:#cc9042;}.cls-9{fill:#b3b3b3;}.cls-10{clip-path:url(#clip-path-2);}.cls-11{clip-path:url(#clip-path-3);}.cls-12{fill:#bcbcbc;}</style><clipPath id="clip-path"><rect class="cls-1" x="106.41" y="239" width="319" height="349" rx="115.76"/></clipPath><clipPath id="clip-path-2"><path class="cls-1" d="M380.41,847h-47.2c-44.57-220.42-92.32-226.83-143.52,0H150.41V607h230Z"/></clipPath><clipPath id="clip-path-3"><ellipse class="cls-1" cx="266.91" cy="133" rx="114.5" ry="133"/></clipPath></defs><title>Asset 5</title><g id="Layer_2" data-name="Layer 2"><g id="Layer_1-2" data-name="Layer 1"><rect class="cls-2" x="-55.59" y="352" width="278" height="55" rx="25.34" transform="translate(-287.72 264.41) rotate(-60.38)"/><path class="cls-3" d="M48.13,385.9,3.32,464.71a25.33,25.33,0,0,0,9.5,34.55l3.75,2.14a25.35,25.35,0,0,0,34.56-9.5l44.81-78.81Z"/><path class="cls-4" d="M150.24,257.6a25.35,25.35,0,0,0-34.56,9.5L3.32,464.71a25.33,25.33,0,0,0,9.5,34.55C8,465.29,127.32,271.33,150.24,257.6Z"/><rect class="cls-2" x="322.41" y="352" width="278" height="55" rx="25.34" transform="translate(351.71 966.77) rotate(-118.86)"/><path class="cls-3" d="M448.42,412.92l43.75,79.4a25.34,25.34,0,0,0,34.43,10l3.78-2.08a25.35,25.35,0,0,0,10-34.43l-43.76-79.4Z"/><path class="cls-4" d="M392.43,258.8a25.34,25.34,0,0,0-10,34.43l109.7,199.09a25.34,25.34,0,0,0,34.43,10C495.13,488.61,392.15,285.51,392.43,258.8Z"/><rect class="cls-2" x="106.41" y="239" width="319" height="349" rx="115.76"/><path class="cls-5" d="M322.77,273c-40.07,6-79.65,6.16-118.72,0a12.63,12.63,0,0,1-12.64-12.64V234.64A12.63,12.63,0,0,1,204.05,222H322.77a12.64,12.64,0,0,1,12.64,12.64v25.72A12.64,12.64,0,0,1,322.77,273Z"/><g class="cls-6"><rect class="cls-3" x="211.64" y="322.31" width="109.53" height="108.26" transform="translate(-188.16 298.64) rotate(-45)"/><rect class="cls-3" x="59.64" y="323.31" width="109.53" height="108.26" transform="translate(-233.39 191.45) rotate(-45)"/><rect class="cls-3" x="363.64" y="322.31" width="109.53" height="108.26" transform="translate(-143.64 406.12) rotate(-45)"/><path class="cls-4" d="M215.41,569h-124V243h124C106.41,301,135.41,549,215.41,569Z"/></g><polygon class="cls-7" points="263.4 492 475.4 222 51.41 222 263.4 492"/><polygon class="cls-8" points="263.4 446 354.49 330 172.32 330 263.4 446"/><path class="cls-3" d="M314.77,270a611.69,611.69,0,0,1-102.72,0,12.63,12.63,0,0,1-12.64-12.64V234.64A12.63,12.63,0,0,1,212.05,222H314.77a12.64,12.64,0,0,1,12.64,12.64v22.72A12.64,12.64,0,0,1,314.77,270Z"/><ellipse class="cls-2" cx="266.91" cy="133" rx="114.5" ry="133"/><rect class="cls-9" x="138.91" y="560.5" width="261" height="46" rx="8.36"/><rect class="cls-3" x="144.91" y="562" width="249" height="43" rx="8.36"/><path class="cls-2" d="M380.41,847h-47.2c-44.57-220.42-92.32-226.83-143.52,0H150.41V607h230Z"/><g class="cls-10"><rect class="cls-3" x="128.41" y="764" width="109" height="102"/><rect class="cls-3" x="298.41" y="764" width="109" height="102"/><path class="cls-4" d="M163.41,854l-36,1V598l60,1C139.41,701,156.41,801,163.41,854Z"/><path class="cls-4" d="M345.41,783c0,65.72,9.3,95-23,95s-102-39.28-102-105,34.19-109,66.5-109S345.41,717.28,345.41,783Z"/></g><g class="cls-11"><rect class="cls-12" x="147.41" y="80" width="238" height="89"/><rect x="145.41" y="87" width="242" height="75"/><path class="cls-4" d="M270.41,266h-160V0h160C161.41,46,180.41,220,270.41,266Z"/></g><ellipse class="cls-8" cx="262.91" cy="581.5" rx="45" ry="32"/><ellipse class="cls-7" cx="262.91" cy="581.5" rx="39.5" ry="28.09"/></g></g></svg>